<?xml version="1.0" encoding="UTF-8"?>
<svg width="620px" height="382px" viewBox="0 0 620 382" version="1.1" xmlns="http://www.w3.org/2000/svg" xmlns:xlink="http://www.w3.org/1999/xlink">
    <!-- Generator: Sketch 42 (36781) - http://www.bohemiancoding.com/sketch -->
    <title>mukey-zag-2</title>
    <desc>Created with Sketch.</desc>
    <defs></defs>
    <g id="Landing" stroke="none" stroke-width="1" fill="none" fill-rule="evenodd">
        <g id="Full-Page" transform="translate(-413.000000, -318.000000)">
            <g id="mukey-zag-2" transform="translate(413.000000, 318.000000)">
                <g id="W" transform="translate(340.000000, 0.000000)">
                    <path d="M278.38,2.92 C276.908,1.288 273.932,0.232 271.788,0.232 C267.724,0.232 264.748,3.464 264.748,7.464 C264.748,11.208 267.02,12.776 270.124,14.056 C272.012,14.792 274.316,15.496 274.316,17.992 C274.316,19.848 273.132,21.48 271.212,21.48 C269.196,21.48 267.5,19.816 266.86,17.96 L263.82,20.936 C265.484,23.72 267.916,25.64 271.244,25.64 C276.172,25.64 279.18,22.216 279.18,17.384 C279.18,9.288 269.612,10.984 269.612,6.92 C269.612,5.352 271.052,4.2 272.556,4.2 C274.124,4.2 275.276,4.968 276.172,6.184 L278.38,2.92 Z" id="S" fill="#5769FF"></path>
                    <polygon id="L" fill="#5769FF" points="271.5 356.872 266.796 356.872 266.796 381 278.156 381 278.156 376.904 271.5 376.904"></polygon>
                    <circle id="Oval" fill="#5769FF" fill-rule="nonzero" cx="271.5" cy="335.5" r="3.5"></circle>
                    <circle id="Oval" fill="#5769FF" fill-rule="nonzero" cx="271.5" cy="49.5" r="3.5"></circle>
                    <polygon id="L" fill="#5769FF" points="144.5 0.872 139.796 0.872 139.796 25 151.156 25 151.156 20.904 144.5 20.904"></polygon>
                    <circle id="Oval" fill="#5769FF" fill-rule="nonzero" cx="144.5" cy="49.5" r="3.5"></circle>
                    <polygon fill="#5769FF" points="5.848 0.872 0.92 0.872 8.6 25.48 12.056 25.48 16.6 9.704 16.664 9.704 21.464 25.48 24.92 25.48 33.08 0.872 28.152 0.872 23.416 17.32 23.352 17.32 18.36 0.552 15.576 0.552 10.776 17.32 10.712 17.32"></polygon>
                    <polygon id="I" fill="#5769FF" points="19.868 356.872 15.164 356.872 15.164 381 19.868 381"></polygon>
                    <circle id="Oval" fill="#5769FF" fill-rule="nonzero" cx="17.5" cy="335.5" r="3.5"></circle>
                    <circle id="Oval" fill="#5769FF" fill-rule="nonzero" cx="17.5" cy="49.5" r="3.5"></circle>
                    <polyline stroke="#FFFFFF" stroke-width="6" stroke-linecap="round" stroke-linejoin="round" points="17.5634766 61.5404839 17.6464844 323.69873 144.519043 61.470824 271.572266 323.605851 271.638672 61.378418"></polyline>
                </g>
                <g id="M">
                    <polygon id="E" fill="#5769FF" points="274.4 4.968 274.4 0.872 261.92 0.872 261.92 25 274.4 25 274.4 20.904 266.624 20.904 266.624 14.376 274.112 14.376 274.112 10.28 266.624 10.28 266.624 4.968"></polygon>
                    <polygon id="Y" fill="#5769FF" points="265.584 369.928 265.584 381 270.288 381 270.288 369.928 277.904 356.872 272.4 356.872 267.792 365.256 263.568 356.872 258.096 356.872"></polygon>
                    <circle id="Oval" fill="#5769FF" fill-rule="nonzero" cx="267.5" cy="335.4" r="3.5"></circle>
                    <circle id="Oval" fill="#5769FF" fill-rule="nonzero" cx="267.5" cy="49.3" r="3.5"></circle>
                    <polygon id="K" fill="#5769FF" points="137.576 367.048 137.512 367.048 137.512 356.872 132.808 356.872 132.808 381 137.512 381 137.512 370.152 137.576 370.152 145.288 381 151.336 381 141.672 368.008 150.824 356.872 145.032 356.872"></polygon>
                    <circle id="Oval" fill="#5769FF" fill-rule="nonzero" cx="140.5" cy="335.5" r="3.5"></circle>
                    <polygon fill="#5769FF" points="21.788 381 26.524 381 22.908 356.232 19.516 356.232 13.82 372.136 7.868 356.232 4.54 356.232 0.476 381 5.212 381 7.356 366.024 7.42 366.024 12.7 381.32 14.332 381.32 19.804 366.024 19.868 366.024"></polygon>
                    <polygon id="I" fill="#5769FF" points="15.868 0.872 11.164 0.872 11.164 25 15.868 25"></polygon>
                    <circle id="Oval" fill="#5769FF" fill-rule="nonzero" cx="13.5" cy="335.5" r="3.5"></circle>
                    <circle id="Oval" fill="#5769FF" fill-rule="nonzero" cx="13.5" cy="49.5" r="3.5"></circle>
                    <polyline stroke="#FFFFFF" stroke-width="6" stroke-linecap="round" stroke-linejoin="round" points="13.5634766 323.536665 13.6464844 61.378418 140.519043 323.606324 267.572266 61.4712979 267.638672 323.69873"></polyline>
                </g>
            </g>
        </g>
    </g>
</svg>